<svg width="250" height="200" xmlns="http://www.w3.org/2000/svg">
<line x1="170" y1="30" x2="170" y2="50" style="stroke:white;stroke-width:2" />
<line x1="180" y1="30" x2="180" y2="50" style="stroke:white;stroke-width:2" />
<line x1="160" y1="30" x2="170" y2="30" style="stroke:white;stroke-width:2" />
<line x1="180" y1="30" x2="180" y2="30" style="stroke:white;stroke-width:2" />
<line x1="180" y1="20" x2="200" y2="20" style="stroke:white;stroke-width:2" />
<line x1="180" y1="30" x2="200" y2="30" style="stroke:white;stroke-width:2" />
<line x1="180" y1="10" x2="180" y2="20" style="stroke:white;stroke-width:2" />
<line x1="180" y1="30" x2="180" y2="30" style="stroke:white;stroke-width:2" />
<line x1="160" y1="10" x2="180" y2="10" style="stroke:white;stroke-width:2" />
<line x1="160" y1="10" x2="160" y2="30" style="stroke:white;stroke-width:2" />

<line x1="200" y1="45" x2="240" y2="45" style="stroke:white;stroke-width:2" />
<line x1="240" y1="5" x2="240" y2="45" style="stroke:white;stroke-width:2" />
<line x1="200" y1="5" x2="240" y2="5" style="stroke:white;stroke-width:2" />
<line x1="200" y1="20" x2="200" y2="20" style="stroke:white;stroke-width:2" />
<line x1="200" y1="30" x2="200" y2="30" style="stroke:white;stroke-width:2" />
<line x1="200" y1="5" x2="200" y2="20" style="stroke:white;stroke-width:2" />
<line x1="200" y1="30" x2="200" y2="45" style="stroke:white;stroke-width:2" />

<line x1="20" y1="80" x2="20" y2="100" style="stroke:white;stroke-width:2" />
<line x1="30" y1="80" x2="30" y2="100" style="stroke:white;stroke-width:2" />
<line x1="15" y1="80" x2="20" y2="80" style="stroke:white;stroke-width:2" />
<line x1="30" y1="80" x2="35" y2="80" style="stroke:white;stroke-width:2" />
<line x1="35" y1="60" x2="35" y2="80" style="stroke:white;stroke-width:2" />
<line x1="15" y1="60" x2="35" y2="60" style="stroke:white;stroke-width:2" />
<line x1="15" y1="60" x2="15" y2="80" style="stroke:white;stroke-width:2" />

<line x1="160" y1="85" x2="180" y2="85" style="stroke:white;stroke-width:2" />
<line x1="180" y1="65" x2="180" y2="85" style="stroke:white;stroke-width:2" />
<line x1="170" y1="50" x2="170" y2="65" style="stroke:white;stroke-width:2" />
<line x1="180" y1="50" x2="180" y2="65" style="stroke:white;stroke-width:2" />
<line x1="160" y1="65" x2="170" y2="65" style="stroke:white;stroke-width:2" />
<line x1="180" y1="65" x2="180" y2="65" style="stroke:white;stroke-width:2" />
<line x1="150" y1="70" x2="160" y2="70" style="stroke:white;stroke-width:2" />
<line x1="150" y1="80" x2="160" y2="80" style="stroke:white;stroke-width:2" />
<line x1="160" y1="65" x2="160" y2="70" style="stroke:white;stroke-width:2" />
<line x1="160" y1="80" x2="160" y2="85" style="stroke:white;stroke-width:2" />

<line x1="65" y1="130" x2="95" y2="130" style="stroke:white;stroke-width:2" />
<line x1="95" y1="120" x2="100" y2="120" style="stroke:white;stroke-width:2" />
<line x1="95" y1="130" x2="100" y2="130" style="stroke:white;stroke-width:2" />
<line x1="95" y1="100" x2="95" y2="120" style="stroke:white;stroke-width:2" />
<line x1="95" y1="130" x2="95" y2="130" style="stroke:white;stroke-width:2" />
<line x1="65" y1="100" x2="95" y2="100" style="stroke:white;stroke-width:2" />
<line x1="50" y1="120" x2="65" y2="120" style="stroke:white;stroke-width:2" />
<line x1="50" y1="130" x2="65" y2="130" style="stroke:white;stroke-width:2" />
<line x1="65" y1="100" x2="65" y2="120" style="stroke:white;stroke-width:2" />
<line x1="65" y1="130" x2="65" y2="130" style="stroke:white;stroke-width:2" />

<line x1="20" y1="150" x2="20" y2="150" style="stroke:white;stroke-width:2" />
<line x1="30" y1="150" x2="30" y2="150" style="stroke:white;stroke-width:2" />
<line x1="0" y1="150" x2="20" y2="150" style="stroke:white;stroke-width:2" />
<line x1="30" y1="150" x2="50" y2="150" style="stroke:white;stroke-width:2" />
<line x1="50" y1="120" x2="50" y2="120" style="stroke:white;stroke-width:2" />
<line x1="50" y1="130" x2="50" y2="130" style="stroke:white;stroke-width:2" />
<line x1="50" y1="100" x2="50" y2="120" style="stroke:white;stroke-width:2" />
<line x1="50" y1="130" x2="50" y2="150" style="stroke:white;stroke-width:2" />
<line x1="20" y1="100" x2="20" y2="100" style="stroke:white;stroke-width:2" />
<line x1="30" y1="100" x2="30" y2="100" style="stroke:white;stroke-width:2" />
<line x1="0" y1="100" x2="20" y2="100" style="stroke:white;stroke-width:2" />
<line x1="30" y1="100" x2="50" y2="100" style="stroke:white;stroke-width:2" />
<line x1="0" y1="100" x2="0" y2="150" style="stroke:white;stroke-width:2" />

<line x1="120" y1="85" x2="120" y2="100" style="stroke:white;stroke-width:2" />
<line x1="130" y1="85" x2="130" y2="100" style="stroke:white;stroke-width:2" />
<line x1="110" y1="85" x2="120" y2="85" style="stroke:white;stroke-width:2" />
<line x1="130" y1="85" x2="140" y2="85" style="stroke:white;stroke-width:2" />
<line x1="140" y1="70" x2="150" y2="70" style="stroke:white;stroke-width:2" />
<line x1="140" y1="80" x2="150" y2="80" style="stroke:white;stroke-width:2" />
<line x1="140" y1="55" x2="140" y2="70" style="stroke:white;stroke-width:2" />
<line x1="140" y1="80" x2="140" y2="85" style="stroke:white;stroke-width:2" />
<line x1="120" y1="50" x2="120" y2="55" style="stroke:white;stroke-width:2" />
<line x1="130" y1="50" x2="130" y2="55" style="stroke:white;stroke-width:2" />
<line x1="110" y1="55" x2="120" y2="55" style="stroke:white;stroke-width:2" />
<line x1="130" y1="55" x2="140" y2="55" style="stroke:white;stroke-width:2" />
<line x1="110" y1="55" x2="110" y2="85" style="stroke:white;stroke-width:2" />

<line x1="105" y1="145" x2="135" y2="145" style="stroke:white;stroke-width:2" />
<line x1="135" y1="115" x2="135" y2="145" style="stroke:white;stroke-width:2" />
<line x1="120" y1="100" x2="120" y2="115" style="stroke:white;stroke-width:2" />
<line x1="130" y1="100" x2="130" y2="115" style="stroke:white;stroke-width:2" />
<line x1="105" y1="115" x2="120" y2="115" style="stroke:white;stroke-width:2" />
<line x1="130" y1="115" x2="135" y2="115" style="stroke:white;stroke-width:2" />
<line x1="100" y1="120" x2="105" y2="120" style="stroke:white;stroke-width:2" />
<line x1="100" y1="130" x2="105" y2="130" style="stroke:white;stroke-width:2" />
<line x1="105" y1="115" x2="105" y2="120" style="stroke:white;stroke-width:2" />
<line x1="105" y1="130" x2="105" y2="145" style="stroke:white;stroke-width:2" />

<line x1="0" y1="200" x2="50" y2="200" style="stroke:white;stroke-width:2" />
<line x1="50" y1="150" x2="50" y2="200" style="stroke:white;stroke-width:2" />
<line x1="20" y1="150" x2="20" y2="150" style="stroke:white;stroke-width:2" />
<line x1="30" y1="150" x2="30" y2="150" style="stroke:white;stroke-width:2" />
<line x1="0" y1="150" x2="20" y2="150" style="stroke:white;stroke-width:2" />
<line x1="30" y1="150" x2="50" y2="150" style="stroke:white;stroke-width:2" />
<line x1="0" y1="150" x2="0" y2="200" style="stroke:white;stroke-width:2" />

<line x1="120" y1="50" x2="120" y2="50" style="stroke:white;stroke-width:2" />
<line x1="130" y1="50" x2="130" y2="50" style="stroke:white;stroke-width:2" />
<line x1="100" y1="50" x2="120" y2="50" style="stroke:white;stroke-width:2" />
<line x1="130" y1="50" x2="150" y2="50" style="stroke:white;stroke-width:2" />
<line x1="150" y1="0" x2="150" y2="50" style="stroke:white;stroke-width:2" />
<line x1="100" y1="0" x2="150" y2="0" style="stroke:white;stroke-width:2" />
<line x1="100" y1="0" x2="100" y2="50" style="stroke:white;stroke-width:2" />

</svg>