<svg width="30" height="50" xmlns="http://www.w3.org/2000/svg">
<line x1="0" y1="0" x2="10" y2="0" style="stroke:white;stroke-width:2" />
<line x1="0" y1="0" x2="0" y2="10" style="stroke:white;stroke-width:2" />
<line x1="10" y1="10" x2="20" y2="10" style="stroke:white;stroke-width:2" />
<line x1="10" y1="0" x2="20" y2="0" style="stroke:white;stroke-width:2" />
<line x1="30" y1="0" x2="30" y2="10" style="stroke:white;stroke-width:2" />
<line x1="20" y1="0" x2="30" y2="0" style="stroke:white;stroke-width:2" />
<line x1="10" y1="10" x2="10" y2="20" style="stroke:white;stroke-width:2" />
<line x1="0" y1="10" x2="0" y2="20" style="stroke:white;stroke-width:2" />
<line x1="10" y1="10" x2="20" y2="10" style="stroke:white;stroke-width:2" />
<line x1="10" y1="10" x2="10" y2="20" style="stroke:white;stroke-width:2" />
<line x1="20" y1="20" x2="30" y2="20" style="stroke:white;stroke-width:2" />
<line x1="30" y1="10" x2="30" y2="20" style="stroke:white;stroke-width:2" />
<line x1="10" y1="20" x2="10" y2="30" style="stroke:white;stroke-width:2" />
<line x1="0" y1="20" x2="0" y2="30" style="stroke:white;stroke-width:2" />
<line x1="10" y1="30" x2="20" y2="30" style="stroke:white;stroke-width:2" />
<line x1="10" y1="20" x2="10" y2="30" style="stroke:white;stroke-width:2" />
<line x1="30" y1="20" x2="30" y2="30" style="stroke:white;stroke-width:2" />
<line x1="20" y1="20" x2="30" y2="20" style="stroke:white;stroke-width:2" />
<line x1="0" y1="40" x2="10" y2="40" style="stroke:white;stroke-width:2" />
<line x1="0" y1="30" x2="0" y2="40" style="stroke:white;stroke-width:2" />
<line x1="20" y1="30" x2="20" y2="40" style="stroke:white;stroke-width:2" />
<line x1="10" y1="30" x2="20" y2="30" style="stroke:white;stroke-width:2" />
<line x1="20" y1="40" x2="30" y2="40" style="stroke:white;stroke-width:2" />
<line x1="30" y1="30" x2="30" y2="40" style="stroke:white;stroke-width:2" />
<line x1="20" y1="30" x2="20" y2="40" style="stroke:white;stroke-width:2" />
<line x1="0" y1="50" x2="10" y2="50" style="stroke:white;stroke-width:2" />
<line x1="0" y1="40" x2="10" y2="40" style="stroke:white;stroke-width:2" />
<line x1="0" y1="40" x2="0" y2="50" style="stroke:white;stroke-width:2" />
<line x1="10" y1="50" x2="20" y2="50" style="stroke:white;stroke-width:2" />
<line x1="20" y1="40" x2="20" y2="50" style="stroke:white;stroke-width:2" />
</svg>