<svg width="100" height="200" xmlns="http://www.w3.org/2000/svg">
<line x1="70" y1="142" x2="70" y2="150" style="stroke:white;stroke-width:2" />
<line x1="80" y1="142" x2="80" y2="150" style="stroke:white;stroke-width:2" />
<line x1="70" y1="100" x2="70" y2="102" style="stroke:white;stroke-width:2" />
<line x1="80" y1="100" x2="80" y2="102" style="stroke:white;stroke-width:2" />
<rect width="40" height="40" x="57" y="102" style="stroke:white;stroke-width:2"/>

<line x1="70" y1="85" x2="70" y2="100" style="stroke:white;stroke-width:2" />
<line x1="80" y1="85" x2="80" y2="100" style="stroke:white;stroke-width:2" />
<line x1="70" y1="50" x2="70" y2="65" style="stroke:white;stroke-width:2" />
<line x1="80" y1="50" x2="80" y2="65" style="stroke:white;stroke-width:2" />
<rect width="20" height="20" x="67" y="65" style="stroke:white;stroke-width:2"/>

<line x1="70" y1="150" x2="70" y2="159" style="stroke:white;stroke-width:2" />
<line x1="80" y1="150" x2="80" y2="159" style="stroke:white;stroke-width:2" />
<rect width="40" height="40" x="50" y="159" style="stroke:white;stroke-width:2"/>

<line x1="70" y1="30" x2="70" y2="50" style="stroke:white;stroke-width:2" />
<line x1="80" y1="30" x2="80" y2="50" style="stroke:white;stroke-width:2" />
<line x1="50" y1="20" x2="70" y2="20" style="stroke:white;stroke-width:2" />
<line x1="50" y1="30" x2="70" y2="30" style="stroke:white;stroke-width:2" />
<rect width="10" height="10" x="70" y="20" style="stroke:white;stroke-width:2"/>

<line x1="20" y1="50" x2="20" y2="50" style="stroke:white;stroke-width:2" />
<line x1="30" y1="50" x2="30" y2="50" style="stroke:white;stroke-width:2" />
<rect width="50" height="50" x="0" y="50" style="stroke:white;stroke-width:2"/>

<line x1="35" y1="20" x2="50" y2="20" style="stroke:white;stroke-width:2" />
<line x1="35" y1="30" x2="50" y2="30" style="stroke:white;stroke-width:2" />
<line x1="20" y1="31" x2="20" y2="50" style="stroke:white;stroke-width:2" />
<line x1="30" y1="31" x2="30" y2="50" style="stroke:white;stroke-width:2" />
<rect width="20" height="20" x="15" y="11" style="stroke:white;stroke-width:2"/>

</svg>