<svg width="200" height="150" xmlns="http://www.w3.org/2000/svg">
<line x1="0" y1="145" x2="50" y2="145" style="stroke:white;stroke-width:2" />
<line x1="50" y1="120" x2="50" y2="120" style="stroke:white;stroke-width:2" />
<line x1="50" y1="130" x2="50" y2="130" style="stroke:white;stroke-width:2" />
<line x1="50" y1="105" x2="50" y2="120" style="stroke:white;stroke-width:2" />
<line x1="50" y1="130" x2="50" y2="145" style="stroke:white;stroke-width:2" />
<line x1="20" y1="100" x2="20" y2="105" style="stroke:white;stroke-width:2" />
<line x1="30" y1="100" x2="30" y2="105" style="stroke:white;stroke-width:2" />
<line x1="0" y1="105" x2="20" y2="105" style="stroke:white;stroke-width:2" />
<line x1="30" y1="105" x2="50" y2="105" style="stroke:white;stroke-width:2" />
<line x1="0" y1="105" x2="0" y2="145" style="stroke:white;stroke-width:2" />

<line x1="60" y1="135" x2="100" y2="135" style="stroke:white;stroke-width:2" />
<line x1="100" y1="105" x2="100" y2="135" style="stroke:white;stroke-width:2" />
<line x1="70" y1="100" x2="70" y2="105" style="stroke:white;stroke-width:2" />
<line x1="80" y1="100" x2="80" y2="105" style="stroke:white;stroke-width:2" />
<line x1="60" y1="105" x2="70" y2="105" style="stroke:white;stroke-width:2" />
<line x1="80" y1="105" x2="100" y2="105" style="stroke:white;stroke-width:2" />
<line x1="50" y1="120" x2="60" y2="120" style="stroke:white;stroke-width:2" />
<line x1="50" y1="130" x2="60" y2="130" style="stroke:white;stroke-width:2" />
<line x1="60" y1="105" x2="60" y2="120" style="stroke:white;stroke-width:2" />
<line x1="60" y1="130" x2="60" y2="135" style="stroke:white;stroke-width:2" />

<line x1="70" y1="100" x2="70" y2="100" style="stroke:white;stroke-width:2" />
<line x1="80" y1="100" x2="80" y2="100" style="stroke:white;stroke-width:2" />
<line x1="50" y1="100" x2="70" y2="100" style="stroke:white;stroke-width:2" />
<line x1="80" y1="100" x2="100" y2="100" style="stroke:white;stroke-width:2" />
<line x1="100" y1="50" x2="100" y2="100" style="stroke:white;stroke-width:2" />
<line x1="70" y1="50" x2="70" y2="50" style="stroke:white;stroke-width:2" />
<line x1="80" y1="50" x2="80" y2="50" style="stroke:white;stroke-width:2" />
<line x1="50" y1="50" x2="70" y2="50" style="stroke:white;stroke-width:2" />
<line x1="80" y1="50" x2="100" y2="50" style="stroke:white;stroke-width:2" />
<line x1="50" y1="50" x2="50" y2="100" style="stroke:white;stroke-width:2" />

<line x1="20" y1="80" x2="20" y2="100" style="stroke:white;stroke-width:2" />
<line x1="30" y1="80" x2="30" y2="100" style="stroke:white;stroke-width:2" />
<line x1="20" y1="80" x2="20" y2="80" style="stroke:white;stroke-width:2" />
<line x1="30" y1="80" x2="30" y2="80" style="stroke:white;stroke-width:2" />
<line x1="30" y1="70" x2="30" y2="80" style="stroke:white;stroke-width:2" />
<line x1="20" y1="70" x2="30" y2="70" style="stroke:white;stroke-width:2" />
<line x1="20" y1="70" x2="20" y2="80" style="stroke:white;stroke-width:2" />

<line x1="120" y1="30" x2="120" y2="50" style="stroke:white;stroke-width:2" />
<line x1="130" y1="30" x2="130" y2="50" style="stroke:white;stroke-width:2" />
<line x1="120" y1="30" x2="120" y2="30" style="stroke:white;stroke-width:2" />
<line x1="130" y1="30" x2="130" y2="30" style="stroke:white;stroke-width:2" />
<line x1="130" y1="20" x2="130" y2="30" style="stroke:white;stroke-width:2" />
<line x1="120" y1="20" x2="130" y2="20" style="stroke:white;stroke-width:2" />
<line x1="100" y1="20" x2="120" y2="20" style="stroke:white;stroke-width:2" />
<line x1="100" y1="30" x2="120" y2="30" style="stroke:white;stroke-width:2" />
<line x1="120" y1="20" x2="120" y2="20" style="stroke:white;stroke-width:2" />
<line x1="120" y1="30" x2="120" y2="30" style="stroke:white;stroke-width:2" />

<line x1="70" y1="30" x2="70" y2="50" style="stroke:white;stroke-width:2" />
<line x1="80" y1="30" x2="80" y2="50" style="stroke:white;stroke-width:2" />
<line x1="50" y1="30" x2="70" y2="30" style="stroke:white;stroke-width:2" />
<line x1="80" y1="30" x2="100" y2="30" style="stroke:white;stroke-width:2" />
<line x1="100" y1="20" x2="100" y2="20" style="stroke:white;stroke-width:2" />
<line x1="100" y1="30" x2="100" y2="30" style="stroke:white;stroke-width:2" />
<line x1="100" y1="20" x2="100" y2="20" style="stroke:white;stroke-width:2" />
<line x1="100" y1="30" x2="100" y2="30" style="stroke:white;stroke-width:2" />
<line x1="50" y1="20" x2="100" y2="20" style="stroke:white;stroke-width:2" />
<line x1="50" y1="20" x2="50" y2="30" style="stroke:white;stroke-width:2" />

<line x1="170" y1="80" x2="180" y2="80" style="stroke:white;stroke-width:2" />
<line x1="180" y1="70" x2="180" y2="80" style="stroke:white;stroke-width:2" />
<line x1="170" y1="50" x2="170" y2="70" style="stroke:white;stroke-width:2" />
<line x1="180" y1="50" x2="180" y2="70" style="stroke:white;stroke-width:2" />
<line x1="170" y1="70" x2="170" y2="70" style="stroke:white;stroke-width:2" />
<line x1="180" y1="70" x2="180" y2="70" style="stroke:white;stroke-width:2" />
<line x1="150" y1="70" x2="170" y2="70" style="stroke:white;stroke-width:2" />
<line x1="150" y1="80" x2="170" y2="80" style="stroke:white;stroke-width:2" />
<line x1="170" y1="70" x2="170" y2="70" style="stroke:white;stroke-width:2" />
<line x1="170" y1="80" x2="170" y2="80" style="stroke:white;stroke-width:2" />

<line x1="120" y1="85" x2="120" y2="100" style="stroke:white;stroke-width:2" />
<line x1="130" y1="85" x2="130" y2="100" style="stroke:white;stroke-width:2" />
<line x1="100" y1="85" x2="120" y2="85" style="stroke:white;stroke-width:2" />
<line x1="130" y1="85" x2="130" y2="85" style="stroke:white;stroke-width:2" />
<line x1="130" y1="70" x2="150" y2="70" style="stroke:white;stroke-width:2" />
<line x1="130" y1="80" x2="150" y2="80" style="stroke:white;stroke-width:2" />
<line x1="130" y1="55" x2="130" y2="70" style="stroke:white;stroke-width:2" />
<line x1="130" y1="80" x2="130" y2="85" style="stroke:white;stroke-width:2" />
<line x1="120" y1="50" x2="120" y2="55" style="stroke:white;stroke-width:2" />
<line x1="130" y1="50" x2="130" y2="55" style="stroke:white;stroke-width:2" />
<line x1="100" y1="55" x2="120" y2="55" style="stroke:white;stroke-width:2" />
<line x1="130" y1="55" x2="130" y2="55" style="stroke:white;stroke-width:2" />
<line x1="100" y1="55" x2="100" y2="85" style="stroke:white;stroke-width:2" />

<line x1="100" y1="150" x2="150" y2="150" style="stroke:white;stroke-width:2" />
<line x1="150" y1="100" x2="150" y2="150" style="stroke:white;stroke-width:2" />
<line x1="120" y1="100" x2="120" y2="100" style="stroke:white;stroke-width:2" />
<line x1="130" y1="100" x2="130" y2="100" style="stroke:white;stroke-width:2" />
<line x1="100" y1="100" x2="120" y2="100" style="stroke:white;stroke-width:2" />
<line x1="130" y1="100" x2="150" y2="100" style="stroke:white;stroke-width:2" />
<line x1="100" y1="100" x2="100" y2="150" style="stroke:white;stroke-width:2" />

<line x1="170" y1="30" x2="170" y2="50" style="stroke:white;stroke-width:2" />
<line x1="180" y1="30" x2="180" y2="50" style="stroke:white;stroke-width:2" />
<line x1="170" y1="30" x2="170" y2="30" style="stroke:white;stroke-width:2" />
<line x1="180" y1="30" x2="180" y2="30" style="stroke:white;stroke-width:2" />
<line x1="180" y1="20" x2="180" y2="30" style="stroke:white;stroke-width:2" />
<line x1="170" y1="20" x2="180" y2="20" style="stroke:white;stroke-width:2" />
<line x1="170" y1="20" x2="170" y2="30" style="stroke:white;stroke-width:2" />

</svg>