<svg width="250" height="250" xmlns="http://www.w3.org/2000/svg">
<line x1="70" y1="90" x2="70" y2="100" style="stroke:white;stroke-width:2" />
<line x1="80" y1="90" x2="80" y2="100" style="stroke:white;stroke-width:2" />
<line x1="50" y1="90" x2="70" y2="90" style="stroke:white;stroke-width:2" />
<line x1="80" y1="90" x2="90" y2="90" style="stroke:white;stroke-width:2" />
<line x1="90" y1="50" x2="90" y2="90" style="stroke:white;stroke-width:2" />
<line x1="70" y1="50" x2="70" y2="50" style="stroke:white;stroke-width:2" />
<line x1="80" y1="50" x2="80" y2="50" style="stroke:white;stroke-width:2" />
<line x1="50" y1="50" x2="70" y2="50" style="stroke:white;stroke-width:2" />
<line x1="80" y1="50" x2="90" y2="50" style="stroke:white;stroke-width:2" />
<line x1="50" y1="50" x2="50" y2="90" style="stroke:white;stroke-width:2" />

<line x1="70" y1="130" x2="70" y2="150" style="stroke:white;stroke-width:2" />
<line x1="80" y1="130" x2="80" y2="150" style="stroke:white;stroke-width:2" />
<line x1="70" y1="130" x2="70" y2="130" style="stroke:white;stroke-width:2" />
<line x1="80" y1="130" x2="80" y2="130" style="stroke:white;stroke-width:2" />
<line x1="80" y1="120" x2="80" y2="130" style="stroke:white;stroke-width:2" />
<line x1="70" y1="100" x2="70" y2="120" style="stroke:white;stroke-width:2" />
<line x1="80" y1="100" x2="80" y2="120" style="stroke:white;stroke-width:2" />
<line x1="70" y1="120" x2="70" y2="120" style="stroke:white;stroke-width:2" />
<line x1="80" y1="120" x2="80" y2="120" style="stroke:white;stroke-width:2" />
<line x1="70" y1="120" x2="70" y2="130" style="stroke:white;stroke-width:2" />

<line x1="60" y1="180" x2="90" y2="180" style="stroke:white;stroke-width:2" />
<line x1="90" y1="170" x2="90" y2="180" style="stroke:white;stroke-width:2" />
<line x1="70" y1="150" x2="70" y2="170" style="stroke:white;stroke-width:2" />
<line x1="80" y1="150" x2="80" y2="170" style="stroke:white;stroke-width:2" />
<line x1="60" y1="170" x2="70" y2="170" style="stroke:white;stroke-width:2" />
<line x1="80" y1="170" x2="90" y2="170" style="stroke:white;stroke-width:2" />
<line x1="50" y1="170" x2="60" y2="170" style="stroke:white;stroke-width:2" />
<line x1="50" y1="180" x2="60" y2="180" style="stroke:white;stroke-width:2" />
<line x1="60" y1="170" x2="60" y2="170" style="stroke:white;stroke-width:2" />
<line x1="60" y1="180" x2="60" y2="180" style="stroke:white;stroke-width:2" />

<line x1="70" y1="35" x2="70" y2="50" style="stroke:white;stroke-width:2" />
<line x1="80" y1="35" x2="80" y2="50" style="stroke:white;stroke-width:2" />
<line x1="50" y1="35" x2="70" y2="35" style="stroke:white;stroke-width:2" />
<line x1="80" y1="35" x2="100" y2="35" style="stroke:white;stroke-width:2" />
<line x1="100" y1="20" x2="100" y2="20" style="stroke:white;stroke-width:2" />
<line x1="100" y1="30" x2="100" y2="30" style="stroke:white;stroke-width:2" />
<line x1="100" y1="5" x2="100" y2="20" style="stroke:white;stroke-width:2" />
<line x1="100" y1="30" x2="100" y2="35" style="stroke:white;stroke-width:2" />
<line x1="50" y1="5" x2="100" y2="5" style="stroke:white;stroke-width:2" />
<line x1="50" y1="5" x2="50" y2="35" style="stroke:white;stroke-width:2" />

<line x1="120" y1="40" x2="120" y2="50" style="stroke:white;stroke-width:2" />
<line x1="130" y1="40" x2="130" y2="50" style="stroke:white;stroke-width:2" />
<line x1="100" y1="40" x2="120" y2="40" style="stroke:white;stroke-width:2" />
<line x1="130" y1="40" x2="130" y2="40" style="stroke:white;stroke-width:2" />
<line x1="130" y1="0" x2="130" y2="40" style="stroke:white;stroke-width:2" />
<line x1="100" y1="0" x2="130" y2="0" style="stroke:white;stroke-width:2" />
<line x1="100" y1="20" x2="100" y2="20" style="stroke:white;stroke-width:2" />
<line x1="100" y1="30" x2="100" y2="30" style="stroke:white;stroke-width:2" />
<line x1="100" y1="0" x2="100" y2="20" style="stroke:white;stroke-width:2" />
<line x1="100" y1="30" x2="100" y2="40" style="stroke:white;stroke-width:2" />

<line x1="20" y1="195" x2="20" y2="200" style="stroke:white;stroke-width:2" />
<line x1="30" y1="195" x2="30" y2="200" style="stroke:white;stroke-width:2" />
<line x1="5" y1="195" x2="20" y2="195" style="stroke:white;stroke-width:2" />
<line x1="30" y1="195" x2="35" y2="195" style="stroke:white;stroke-width:2" />
<line x1="35" y1="170" x2="50" y2="170" style="stroke:white;stroke-width:2" />
<line x1="35" y1="180" x2="50" y2="180" style="stroke:white;stroke-width:2" />
<line x1="35" y1="165" x2="35" y2="170" style="stroke:white;stroke-width:2" />
<line x1="35" y1="180" x2="35" y2="195" style="stroke:white;stroke-width:2" />
<line x1="5" y1="165" x2="35" y2="165" style="stroke:white;stroke-width:2" />
<line x1="5" y1="165" x2="5" y2="195" style="stroke:white;stroke-width:2" />

<line x1="170" y1="100" x2="180" y2="100" style="stroke:white;stroke-width:2" />
<line x1="180" y1="70" x2="200" y2="70" style="stroke:white;stroke-width:2" />
<line x1="180" y1="80" x2="200" y2="80" style="stroke:white;stroke-width:2" />
<line x1="180" y1="50" x2="180" y2="70" style="stroke:white;stroke-width:2" />
<line x1="180" y1="80" x2="180" y2="100" style="stroke:white;stroke-width:2" />
<line x1="170" y1="50" x2="180" y2="50" style="stroke:white;stroke-width:2" />
<line x1="150" y1="70" x2="170" y2="70" style="stroke:white;stroke-width:2" />
<line x1="150" y1="80" x2="170" y2="80" style="stroke:white;stroke-width:2" />
<line x1="170" y1="50" x2="170" y2="70" style="stroke:white;stroke-width:2" />
<line x1="170" y1="80" x2="170" y2="100" style="stroke:white;stroke-width:2" />

<line x1="120" y1="90" x2="130" y2="90" style="stroke:white;stroke-width:2" />
<line x1="130" y1="70" x2="150" y2="70" style="stroke:white;stroke-width:2" />
<line x1="130" y1="80" x2="150" y2="80" style="stroke:white;stroke-width:2" />
<line x1="130" y1="50" x2="130" y2="70" style="stroke:white;stroke-width:2" />
<line x1="130" y1="80" x2="130" y2="90" style="stroke:white;stroke-width:2" />
<line x1="120" y1="50" x2="120" y2="50" style="stroke:white;stroke-width:2" />
<line x1="130" y1="50" x2="130" y2="50" style="stroke:white;stroke-width:2" />
<line x1="120" y1="50" x2="120" y2="50" style="stroke:white;stroke-width:2" />
<line x1="130" y1="50" x2="130" y2="50" style="stroke:white;stroke-width:2" />
<line x1="120" y1="50" x2="120" y2="90" style="stroke:white;stroke-width:2" />

<line x1="5" y1="250" x2="45" y2="250" style="stroke:white;stroke-width:2" />
<line x1="45" y1="200" x2="45" y2="250" style="stroke:white;stroke-width:2" />
<line x1="20" y1="200" x2="20" y2="200" style="stroke:white;stroke-width:2" />
<line x1="30" y1="200" x2="30" y2="200" style="stroke:white;stroke-width:2" />
<line x1="5" y1="200" x2="20" y2="200" style="stroke:white;stroke-width:2" />
<line x1="30" y1="200" x2="45" y2="200" style="stroke:white;stroke-width:2" />
<line x1="5" y1="200" x2="5" y2="250" style="stroke:white;stroke-width:2" />

<line x1="210" y1="100" x2="250" y2="100" style="stroke:white;stroke-width:2" />
<line x1="250" y1="50" x2="250" y2="100" style="stroke:white;stroke-width:2" />
<line x1="210" y1="50" x2="250" y2="50" style="stroke:white;stroke-width:2" />
<line x1="200" y1="70" x2="210" y2="70" style="stroke:white;stroke-width:2" />
<line x1="200" y1="80" x2="210" y2="80" style="stroke:white;stroke-width:2" />
<line x1="210" y1="50" x2="210" y2="70" style="stroke:white;stroke-width:2" />
<line x1="210" y1="80" x2="210" y2="100" style="stroke:white;stroke-width:2" />

</svg>