<svg width="200" height="200" xmlns="http://www.w3.org/2000/svg">
<line x1="100" y1="45" x2="140" y2="45" style="stroke:white;stroke-width:2" />
<line x1="140" y1="20" x2="150" y2="20" style="stroke:white;stroke-width:2" />
<line x1="140" y1="30" x2="150" y2="30" style="stroke:white;stroke-width:2" />
<line x1="140" y1="5" x2="140" y2="20" style="stroke:white;stroke-width:2" />
<line x1="140" y1="30" x2="140" y2="45" style="stroke:white;stroke-width:2" />
<line x1="100" y1="5" x2="140" y2="5" style="stroke:white;stroke-width:2" />
<line x1="100" y1="20" x2="100" y2="20" style="stroke:white;stroke-width:2" />
<line x1="100" y1="30" x2="100" y2="30" style="stroke:white;stroke-width:2" />
<line x1="100" y1="5" x2="100" y2="20" style="stroke:white;stroke-width:2" />
<line x1="100" y1="30" x2="100" y2="45" style="stroke:white;stroke-width:2" />

<line x1="170" y1="45" x2="170" y2="50" style="stroke:white;stroke-width:2" />
<line x1="180" y1="45" x2="180" y2="50" style="stroke:white;stroke-width:2" />
<line x1="165" y1="45" x2="170" y2="45" style="stroke:white;stroke-width:2" />
<line x1="180" y1="45" x2="195" y2="45" style="stroke:white;stroke-width:2" />
<line x1="195" y1="15" x2="195" y2="45" style="stroke:white;stroke-width:2" />
<line x1="165" y1="15" x2="195" y2="15" style="stroke:white;stroke-width:2" />
<line x1="150" y1="20" x2="165" y2="20" style="stroke:white;stroke-width:2" />
<line x1="150" y1="30" x2="165" y2="30" style="stroke:white;stroke-width:2" />
<line x1="165" y1="15" x2="165" y2="20" style="stroke:white;stroke-width:2" />
<line x1="165" y1="30" x2="165" y2="45" style="stroke:white;stroke-width:2" />

<line x1="165" y1="85" x2="185" y2="85" style="stroke:white;stroke-width:2" />
<line x1="185" y1="65" x2="185" y2="85" style="stroke:white;stroke-width:2" />
<line x1="170" y1="50" x2="170" y2="65" style="stroke:white;stroke-width:2" />
<line x1="180" y1="50" x2="180" y2="65" style="stroke:white;stroke-width:2" />
<line x1="165" y1="65" x2="170" y2="65" style="stroke:white;stroke-width:2" />
<line x1="180" y1="65" x2="185" y2="65" style="stroke:white;stroke-width:2" />
<line x1="150" y1="70" x2="165" y2="70" style="stroke:white;stroke-width:2" />
<line x1="150" y1="80" x2="165" y2="80" style="stroke:white;stroke-width:2" />
<line x1="165" y1="65" x2="165" y2="70" style="stroke:white;stroke-width:2" />
<line x1="165" y1="80" x2="165" y2="85" style="stroke:white;stroke-width:2" />

<line x1="50" y1="50" x2="90" y2="50" style="stroke:white;stroke-width:2" />
<line x1="90" y1="20" x2="100" y2="20" style="stroke:white;stroke-width:2" />
<line x1="90" y1="30" x2="100" y2="30" style="stroke:white;stroke-width:2" />
<line x1="90" y1="10" x2="90" y2="20" style="stroke:white;stroke-width:2" />
<line x1="90" y1="30" x2="90" y2="50" style="stroke:white;stroke-width:2" />
<line x1="50" y1="10" x2="90" y2="10" style="stroke:white;stroke-width:2" />
<line x1="50" y1="10" x2="50" y2="50" style="stroke:white;stroke-width:2" />

<line x1="160" y1="200" x2="190" y2="200" style="stroke:white;stroke-width:2" />
<line x1="190" y1="170" x2="190" y2="200" style="stroke:white;stroke-width:2" />
<line x1="160" y1="170" x2="190" y2="170" style="stroke:white;stroke-width:2" />
<line x1="150" y1="170" x2="160" y2="170" style="stroke:white;stroke-width:2" />
<line x1="150" y1="180" x2="160" y2="180" style="stroke:white;stroke-width:2" />
<line x1="160" y1="170" x2="160" y2="170" style="stroke:white;stroke-width:2" />
<line x1="160" y1="180" x2="160" y2="200" style="stroke:white;stroke-width:2" />

<line x1="120" y1="80" x2="120" y2="100" style="stroke:white;stroke-width:2" />
<line x1="130" y1="80" x2="130" y2="100" style="stroke:white;stroke-width:2" />
<line x1="120" y1="80" x2="120" y2="80" style="stroke:white;stroke-width:2" />
<line x1="130" y1="80" x2="130" y2="80" style="stroke:white;stroke-width:2" />
<line x1="130" y1="70" x2="150" y2="70" style="stroke:white;stroke-width:2" />
<line x1="130" y1="80" x2="150" y2="80" style="stroke:white;stroke-width:2" />
<line x1="130" y1="70" x2="130" y2="70" style="stroke:white;stroke-width:2" />
<line x1="130" y1="80" x2="130" y2="80" style="stroke:white;stroke-width:2" />
<line x1="120" y1="70" x2="130" y2="70" style="stroke:white;stroke-width:2" />
<line x1="120" y1="70" x2="120" y2="80" style="stroke:white;stroke-width:2" />

<line x1="60" y1="190" x2="100" y2="190" style="stroke:white;stroke-width:2" />
<line x1="100" y1="170" x2="100" y2="170" style="stroke:white;stroke-width:2" />
<line x1="100" y1="180" x2="100" y2="180" style="stroke:white;stroke-width:2" />
<line x1="100" y1="150" x2="100" y2="170" style="stroke:white;stroke-width:2" />
<line x1="100" y1="180" x2="100" y2="190" style="stroke:white;stroke-width:2" />
<line x1="60" y1="150" x2="100" y2="150" style="stroke:white;stroke-width:2" />
<line x1="50" y1="170" x2="60" y2="170" style="stroke:white;stroke-width:2" />
<line x1="50" y1="180" x2="60" y2="180" style="stroke:white;stroke-width:2" />
<line x1="60" y1="150" x2="60" y2="170" style="stroke:white;stroke-width:2" />
<line x1="60" y1="180" x2="60" y2="190" style="stroke:white;stroke-width:2" />

<line x1="100" y1="190" x2="130" y2="190" style="stroke:white;stroke-width:2" />
<line x1="130" y1="170" x2="150" y2="170" style="stroke:white;stroke-width:2" />
<line x1="130" y1="180" x2="150" y2="180" style="stroke:white;stroke-width:2" />
<line x1="130" y1="160" x2="130" y2="170" style="stroke:white;stroke-width:2" />
<line x1="130" y1="180" x2="130" y2="190" style="stroke:white;stroke-width:2" />
<line x1="120" y1="150" x2="120" y2="160" style="stroke:white;stroke-width:2" />
<line x1="130" y1="150" x2="130" y2="160" style="stroke:white;stroke-width:2" />
<line x1="100" y1="160" x2="120" y2="160" style="stroke:white;stroke-width:2" />
<line x1="130" y1="160" x2="130" y2="160" style="stroke:white;stroke-width:2" />
<line x1="100" y1="170" x2="100" y2="170" style="stroke:white;stroke-width:2" />
<line x1="100" y1="180" x2="100" y2="180" style="stroke:white;stroke-width:2" />
<line x1="100" y1="160" x2="100" y2="170" style="stroke:white;stroke-width:2" />
<line x1="100" y1="180" x2="100" y2="190" style="stroke:white;stroke-width:2" />

<line x1="120" y1="150" x2="120" y2="150" style="stroke:white;stroke-width:2" />
<line x1="130" y1="150" x2="130" y2="150" style="stroke:white;stroke-width:2" />
<line x1="105" y1="150" x2="120" y2="150" style="stroke:white;stroke-width:2" />
<line x1="130" y1="150" x2="145" y2="150" style="stroke:white;stroke-width:2" />
<line x1="145" y1="110" x2="145" y2="150" style="stroke:white;stroke-width:2" />
<line x1="120" y1="100" x2="120" y2="110" style="stroke:white;stroke-width:2" />
<line x1="130" y1="100" x2="130" y2="110" style="stroke:white;stroke-width:2" />
<line x1="105" y1="110" x2="120" y2="110" style="stroke:white;stroke-width:2" />
<line x1="130" y1="110" x2="145" y2="110" style="stroke:white;stroke-width:2" />
<line x1="105" y1="110" x2="105" y2="150" style="stroke:white;stroke-width:2" />

<line x1="20" y1="180" x2="30" y2="180" style="stroke:white;stroke-width:2" />
<line x1="30" y1="170" x2="50" y2="170" style="stroke:white;stroke-width:2" />
<line x1="30" y1="180" x2="50" y2="180" style="stroke:white;stroke-width:2" />
<line x1="30" y1="170" x2="30" y2="170" style="stroke:white;stroke-width:2" />
<line x1="30" y1="180" x2="30" y2="180" style="stroke:white;stroke-width:2" />
<line x1="20" y1="170" x2="30" y2="170" style="stroke:white;stroke-width:2" />
<line x1="20" y1="170" x2="20" y2="180" style="stroke:white;stroke-width:2" />

</svg>