<svg width="200" height="150" xmlns="http://www.w3.org/2000/svg">
<line x1="166" y1="131" x2="186" y2="131" style="stroke:white;stroke-width:2" />
<line x1="186" y1="111" x2="186" y2="131" style="stroke:white;stroke-width:2" />
<line x1="166" y1="111" x2="186" y2="111" style="stroke:white;stroke-width:2" />
<line x1="150" y1="120" x2="166" y2="120" style="stroke:white;stroke-width:2" />
<line x1="150" y1="130" x2="166" y2="130" style="stroke:white;stroke-width:2" />
<line x1="166" y1="111" x2="166" y2="120" style="stroke:white;stroke-width:2" />
<line x1="166" y1="130" x2="166" y2="131" style="stroke:white;stroke-width:2" />

<line x1="163" y1="89" x2="183" y2="89" style="stroke:white;stroke-width:2" />
<line x1="183" y1="69" x2="183" y2="89" style="stroke:white;stroke-width:2" />
<line x1="170" y1="50" x2="170" y2="69" style="stroke:white;stroke-width:2" />
<line x1="180" y1="50" x2="180" y2="69" style="stroke:white;stroke-width:2" />
<line x1="163" y1="69" x2="170" y2="69" style="stroke:white;stroke-width:2" />
<line x1="180" y1="69" x2="183" y2="69" style="stroke:white;stroke-width:2" />
<line x1="163" y1="69" x2="163" y2="89" style="stroke:white;stroke-width:2" />

<line x1="170" y1="30" x2="170" y2="50" style="stroke:white;stroke-width:2" />
<line x1="180" y1="30" x2="180" y2="50" style="stroke:white;stroke-width:2" />
<line x1="170" y1="30" x2="170" y2="30" style="stroke:white;stroke-width:2" />
<line x1="180" y1="30" x2="180" y2="30" style="stroke:white;stroke-width:2" />
<line x1="180" y1="20" x2="180" y2="30" style="stroke:white;stroke-width:2" />
<line x1="170" y1="20" x2="180" y2="20" style="stroke:white;stroke-width:2" />
<line x1="150" y1="20" x2="170" y2="20" style="stroke:white;stroke-width:2" />
<line x1="150" y1="30" x2="170" y2="30" style="stroke:white;stroke-width:2" />
<line x1="170" y1="20" x2="170" y2="20" style="stroke:white;stroke-width:2" />
<line x1="170" y1="30" x2="170" y2="30" style="stroke:white;stroke-width:2" />

<line x1="104" y1="147" x2="134" y2="147" style="stroke:white;stroke-width:2" />
<line x1="134" y1="120" x2="150" y2="120" style="stroke:white;stroke-width:2" />
<line x1="134" y1="130" x2="150" y2="130" style="stroke:white;stroke-width:2" />
<line x1="134" y1="117" x2="134" y2="120" style="stroke:white;stroke-width:2" />
<line x1="134" y1="130" x2="134" y2="147" style="stroke:white;stroke-width:2" />
<line x1="120" y1="100" x2="120" y2="117" style="stroke:white;stroke-width:2" />
<line x1="130" y1="100" x2="130" y2="117" style="stroke:white;stroke-width:2" />
<line x1="104" y1="117" x2="120" y2="117" style="stroke:white;stroke-width:2" />
<line x1="130" y1="117" x2="134" y2="117" style="stroke:white;stroke-width:2" />
<line x1="104" y1="117" x2="104" y2="147" style="stroke:white;stroke-width:2" />

<line x1="120" y1="100" x2="120" y2="100" style="stroke:white;stroke-width:2" />
<line x1="130" y1="100" x2="130" y2="100" style="stroke:white;stroke-width:2" />
<line x1="100" y1="100" x2="120" y2="100" style="stroke:white;stroke-width:2" />
<line x1="130" y1="100" x2="150" y2="100" style="stroke:white;stroke-width:2" />
<line x1="150" y1="50" x2="150" y2="100" style="stroke:white;stroke-width:2" />
<line x1="120" y1="50" x2="120" y2="50" style="stroke:white;stroke-width:2" />
<line x1="130" y1="50" x2="130" y2="50" style="stroke:white;stroke-width:2" />
<line x1="100" y1="50" x2="120" y2="50" style="stroke:white;stroke-width:2" />
<line x1="130" y1="50" x2="150" y2="50" style="stroke:white;stroke-width:2" />
<line x1="100" y1="50" x2="100" y2="100" style="stroke:white;stroke-width:2" />

<line x1="120" y1="35" x2="120" y2="50" style="stroke:white;stroke-width:2" />
<line x1="130" y1="35" x2="130" y2="50" style="stroke:white;stroke-width:2" />
<line x1="117" y1="35" x2="120" y2="35" style="stroke:white;stroke-width:2" />
<line x1="130" y1="35" x2="137" y2="35" style="stroke:white;stroke-width:2" />
<line x1="137" y1="20" x2="150" y2="20" style="stroke:white;stroke-width:2" />
<line x1="137" y1="30" x2="150" y2="30" style="stroke:white;stroke-width:2" />
<line x1="137" y1="15" x2="137" y2="20" style="stroke:white;stroke-width:2" />
<line x1="137" y1="30" x2="137" y2="35" style="stroke:white;stroke-width:2" />
<line x1="117" y1="15" x2="137" y2="15" style="stroke:white;stroke-width:2" />
<line x1="100" y1="20" x2="117" y2="20" style="stroke:white;stroke-width:2" />
<line x1="100" y1="30" x2="117" y2="30" style="stroke:white;stroke-width:2" />
<line x1="117" y1="15" x2="117" y2="20" style="stroke:white;stroke-width:2" />
<line x1="117" y1="30" x2="117" y2="35" style="stroke:white;stroke-width:2" />

<line x1="53" y1="150" x2="93" y2="150" style="stroke:white;stroke-width:2" />
<line x1="93" y1="110" x2="93" y2="150" style="stroke:white;stroke-width:2" />
<line x1="70" y1="100" x2="70" y2="110" style="stroke:white;stroke-width:2" />
<line x1="80" y1="100" x2="80" y2="110" style="stroke:white;stroke-width:2" />
<line x1="53" y1="110" x2="70" y2="110" style="stroke:white;stroke-width:2" />
<line x1="80" y1="110" x2="93" y2="110" style="stroke:white;stroke-width:2" />
<line x1="50" y1="120" x2="53" y2="120" style="stroke:white;stroke-width:2" />
<line x1="50" y1="130" x2="53" y2="130" style="stroke:white;stroke-width:2" />
<line x1="53" y1="110" x2="53" y2="120" style="stroke:white;stroke-width:2" />
<line x1="53" y1="130" x2="53" y2="150" style="stroke:white;stroke-width:2" />

<line x1="70" y1="80" x2="70" y2="100" style="stroke:white;stroke-width:2" />
<line x1="80" y1="80" x2="80" y2="100" style="stroke:white;stroke-width:2" />
<line x1="70" y1="80" x2="70" y2="80" style="stroke:white;stroke-width:2" />
<line x1="80" y1="80" x2="80" y2="80" style="stroke:white;stroke-width:2" />
<line x1="80" y1="70" x2="80" y2="80" style="stroke:white;stroke-width:2" />
<line x1="70" y1="50" x2="70" y2="70" style="stroke:white;stroke-width:2" />
<line x1="80" y1="50" x2="80" y2="70" style="stroke:white;stroke-width:2" />
<line x1="70" y1="70" x2="70" y2="70" style="stroke:white;stroke-width:2" />
<line x1="80" y1="70" x2="80" y2="70" style="stroke:white;stroke-width:2" />
<line x1="70" y1="70" x2="70" y2="80" style="stroke:white;stroke-width:2" />

<line x1="70" y1="30" x2="70" y2="50" style="stroke:white;stroke-width:2" />
<line x1="80" y1="30" x2="80" y2="50" style="stroke:white;stroke-width:2" />
<line x1="70" y1="30" x2="70" y2="30" style="stroke:white;stroke-width:2" />
<line x1="80" y1="30" x2="80" y2="30" style="stroke:white;stroke-width:2" />
<line x1="80" y1="20" x2="100" y2="20" style="stroke:white;stroke-width:2" />
<line x1="80" y1="30" x2="100" y2="30" style="stroke:white;stroke-width:2" />
<line x1="80" y1="20" x2="80" y2="20" style="stroke:white;stroke-width:2" />
<line x1="80" y1="30" x2="80" y2="30" style="stroke:white;stroke-width:2" />
<line x1="70" y1="20" x2="80" y2="20" style="stroke:white;stroke-width:2" />
<line x1="70" y1="20" x2="70" y2="30" style="stroke:white;stroke-width:2" />

<line x1="13" y1="134" x2="33" y2="134" style="stroke:white;stroke-width:2" />
<line x1="33" y1="120" x2="50" y2="120" style="stroke:white;stroke-width:2" />
<line x1="33" y1="130" x2="50" y2="130" style="stroke:white;stroke-width:2" />
<line x1="33" y1="114" x2="33" y2="120" style="stroke:white;stroke-width:2" />
<line x1="33" y1="130" x2="33" y2="134" style="stroke:white;stroke-width:2" />
<line x1="13" y1="114" x2="33" y2="114" style="stroke:white;stroke-width:2" />
<line x1="13" y1="114" x2="13" y2="134" style="stroke:white;stroke-width:2" />

</svg>